{"glyphs":{":":{"x_min":0,"x_max":240,"ha":240,"o":"m 120 476 q 153 476 176 453 q 199 431 199 397 q 199 364 176 341 q 153 318 120 318 q 88 318 65 342 q 41 365 41 397 q 41 430 65 453 q 89 476 120 476 z m 120 150 q 153 150 176 127 q 199 104 199 71 q 199 38 176 15 q 153 -8 120 -8 q 88 -8 65 15 q 41 39 41 71 q 41 104 65 127 q 89 150 120 150 z"},"$":{"x_min":0,"x_max":573,"ha":573,"o":"m 480 531 l 466 531 q 436 596 395 619 q 355 642 307 650 l 307 446 q 312 444 324 437 q 336 430 361 417 q 385 403 397 396 q 410 390 410 389 q 458 358 483 329 q 508 299 516 271 q 525 243 525 204 q 525 151 497 111 q 469 71 419 48 q 370 26 307 23 l 307 -7 l 253 -7 l 253 23 q 249 23 186 31 q 124 38 110 38 q 96 38 85 29 l 71 29 l 71 202 l 85 202 q 100 161 116 136 q 132 111 153 96 q 173 82 196 77 q 219 71 253 69 l 253 300 q 192 328 153 352 q 113 375 92 398 q 70 420 61 446 q 52 472 52 506 q 52 582 101 636 q 149 691 253 698 l 253 728 l 307 728 l 307 698 q 317 697 326 696 q 335 694 360 689 q 403 680 424 680 q 451 680 466 695 l 480 695 z m 253 474 l 253 652 q 206 648 184 625 q 162 603 162 570 q 162 548 174 531 q 186 514 204 502 q 222 490 253 474 z m 307 271 l 307 69 q 367 71 388 99 q 409 126 409 155 q 409 182 389 210 q 369 237 307 271 z"},"?":{"x_min":0,"x_max":344,"ha":344,"o":"m 21 574 l 11 574 q 33 650 77 688 q 121 726 175 726 q 221 726 256 703 q 291 680 309 642 q 328 604 328 563 q 328 477 237 379 l 179 316 q 155 290 142 263 q 129 237 129 219 q 129 207 131 201 l 120 201 q 83 252 83 292 q 83 326 94 355 q 105 383 123 414 q 143 447 154 476 q 166 505 166 533 q 166 563 144 586 q 122 610 90 610 q 77 610 57 604 q 37 597 21 574 z m 151 150 q 184 150 207 126 q 230 103 230 71 q 230 39 207 16 q 184 -8 151 -8 q 118 -8 95 16 q 72 39 72 71 q 72 104 94 127 q 117 150 151 150 z"},"<":{"x_min":0,"x_max":549,"ha":549,"o":"m 26 230 l 26 292 l 523 522 l 523 460 l 90 261 l 523 62 l 523 0 z"},"'":{"x_min":0,"x_max":240,"ha":240,"o":"m 25 438 l 25 455 q 62 477 83 506 q 103 535 106 563 q 71 568 52 592 q 33 615 33 642 q 33 676 58 701 q 83 726 119 726 q 162 726 185 696 q 208 665 208 627 q 208 592 189 553 q 171 515 130 483 q 89 452 25 438 z"},"=":{"x_min":0,"x_max":549,"ha":549,"o":"m 537 390 l 537 335 l 11 335 l 11 390 z m 537 196 l 537 141 l 11 141 l 11 196 z"},"a":{"x_min":0,"x_max":792,"ha":792,"o":""},"L":{"x_min":0,"x_max":604,"ha":604,"o":"m 561 0 l 13 0 l 13 14 q 69 14 86 39 q 102 64 102 107 l 102 612 q 102 659 82 682 q 62 705 13 705 l 13 719 l 353 719 l 353 705 q 297 705 280 680 q 262 655 262 612 l 262 131 q 262 86 279 63 q 296 40 346 40 l 396 40 q 447 40 492 66 q 537 92 572 186 l 586 186 z"},"3":{"x_min":0,"x_max":510,"ha":510,"o":"m 64 346 l 64 396 q 83 395 102 393 q 116 393 125 393 q 133 393 143 392 q 217 392 251 430 q 284 467 284 540 q 284 588 264 635 q 244 683 182 683 q 158 683 129 670 q 99 658 73 625 q 46 593 34 538 l 22 538 l 22 719 l 34 719 q 40 705 49 700 q 59 696 64 696 q 71 696 79 698 q 87 701 93 703 q 130 717 159 722 q 189 726 213 726 q 281 726 330 701 q 378 677 403 636 q 427 596 427 551 q 427 502 398 462 q 369 421 305 397 l 305 395 q 370 383 409 350 q 447 317 461 278 q 475 240 475 205 q 475 157 452 108 q 429 59 377 25 q 325 -8 246 -8 q 176 -8 124 16 q 73 41 22 81 l 22 133 q 58 105 89 89 q 121 72 146 66 q 172 59 197 59 q 263 59 289 104 q 315 148 315 202 q 315 353 138 353 q 104 353 64 346 z"},";":{"x_min":0,"x_max":240,"ha":240,"o":"m 27 -122 l 27 -105 q 62 -87 83 -59 q 104 -31 104 -15 q 104 -7 99 -6 q 57 0 46 26 q 34 51 34 73 q 34 110 59 132 q 84 154 117 154 q 158 154 183 125 q 209 96 209 55 q 209 19 186 -19 q 164 -56 122 -84 q 80 -112 27 -122 z m 120 476 q 153 476 176 453 q 199 431 199 397 q 199 364 176 341 q 153 318 120 318 q 88 318 65 342 q 41 365 41 397 q 41 430 65 453 q 89 476 120 476 z"},"J":{"x_min":0,"x_max":417,"ha":417,"o":"m 136 49 l 136 613 q 136 650 121 677 q 105 705 51 705 l 45 705 l 45 719 l 383 719 l 383 705 q 326 705 311 680 q 296 655 296 613 l 296 77 q 296 28 287 -19 q 278 -66 240 -106 q 203 -147 125 -147 q 75 -147 41 -126 q 6 -105 -11 -75 q -29 -45 -34 -18 l -21 -13 q 4 -65 57 -65 q 136 -65 136 49 z"},"V":{"x_min":0,"x_max":740,"ha":740,"o":"m 726 719 l 726 705 q 687 699 658 675 q 629 650 599 564 l 395 -8 l 376 -8 l 131 610 q 113 657 88 679 q 62 702 13 705 l 13 719 l 342 719 l 342 705 q 317 704 302 697 q 287 690 287 664 q 287 646 300 614 l 440 259 l 552 573 q 566 611 566 641 q 566 658 553 679 q 540 700 493 705 l 493 719 z"},"\"":{"x_min":0,"x_max":458,"ha":458,"o":"m 28 438 l 28 455 q 65 477 85 506 q 105 535 109 563 q 74 568 55 592 q 36 615 36 642 q 36 676 61 701 q 85 726 122 726 q 165 726 188 696 q 211 665 211 627 q 211 592 192 553 q 174 515 133 483 q 92 452 28 438 z m 247 438 l 247 455 q 286 478 305 507 q 325 536 327 563 q 292 568 274 592 q 255 615 255 642 q 255 664 266 684 q 277 703 297 715 q 316 726 340 726 q 370 726 390 711 q 410 696 420 673 q 430 651 430 627 q 430 592 412 553 q 393 515 353 483 q 312 452 247 438 z"},"7":{"x_min":0,"x_max":573,"ha":573,"o":"m 566 719 l 256 0 l 85 0 l 358 634 l 155 634 q 125 634 103 624 q 82 614 59 578 q 57 575 26 503 q 26 503 22 494 l 8 494 l 50 719 z"},"S":{"x_min":0,"x_max":510,"ha":510,"o":"m 437 541 l 418 541 q 398 608 356 647 q 313 686 253 686 q 223 686 198 674 q 174 662 159 640 q 145 618 145 589 q 145 572 151 556 q 156 540 178 517 q 199 493 243 465 q 292 434 303 426 q 365 387 404 354 q 443 321 463 282 q 484 244 484 195 q 484 150 467 113 q 449 76 417 49 q 385 22 341 7 q 297 -8 245 -8 q 192 -8 122 12 q 114 14 102 17 q 90 19 81 19 q 58 19 48 -5 l 31 -5 l 35 198 l 54 198 q 63 141 94 102 q 125 63 163 46 q 202 29 239 29 q 293 29 328 59 q 364 89 364 133 q 364 162 349 184 q 334 206 304 227 q 274 248 192 301 q 148 329 118 355 q 87 382 70 406 q 53 430 46 454 q 39 479 39 506 q 39 559 66 610 q 93 661 143 694 q 193 726 257 726 q 287 726 314 720 q 321 719 333 716 q 346 713 354 711 q 375 707 386 707 q 403 707 409 712 q 416 718 422 728 l 437 728 z"},"}":{"x_min":0,"x_max":375,"ha":375,"o":"m 45 -143 l 45 -121 q 93 -111 117 -87 q 140 -62 140 -29 q 140 10 128 50 q 116 101 116 137 q 116 191 160 236 q 184 261 210 273 q 235 285 276 295 l 276 297 q 231 311 206 323 q 181 335 157 359 q 115 403 115 455 q 115 469 118 485 q 120 500 123 516 q 126 531 127 534 q 139 580 139 619 q 139 695 45 714 l 45 736 q 117 737 162 711 q 208 684 227 647 q 246 611 246 582 q 246 546 231 490 q 220 443 220 411 q 220 381 239 351 q 258 321 315 311 l 315 282 q 256 272 238 239 q 220 205 220 177 q 220 145 230 102 q 245 39 245 13 q 245 2 240 -20 q 234 -42 215 -70 q 195 -98 154 -119 q 112 -140 45 -143 z"},"Z":{"x_min":0,"x_max":740,"ha":740,"o":"m 703 719 l 233 40 l 505 40 q 550 40 582 47 q 613 55 635 71 q 657 87 672 113 q 687 138 702 180 l 716 180 l 691 0 l 12 0 l 481 679 l 220 679 q 184 679 154 671 q 125 663 98 631 q 71 598 57 533 l 43 533 l 59 719 z"},"x":{"x_min":0,"x_max":833,"ha":833,"o":""},")":{"x_min":0,"x_max":365,"ha":365,"o":"m -31 718 l -16 738 q 83 704 156 645 q 195 614 224 574 q 253 534 272 490 q 291 446 301 399 q 310 353 310 306 q 310 212 271 120 q 231 28 156 -32 q 86 -88 -16 -125 l -31 -105 q 37 -65 76 -13 q 116 38 135 114 q 153 190 153 306 q 153 395 143 457 q 133 520 111 568 q 89 616 54 652 q 20 688 -31 718 z"},"&":{"x_min":0,"x_max":833,"ha":833,"o":"m 730 463 l 730 449 q 703 446 683 429 q 663 411 649 388 q 636 366 597 289 q 586 268 576 248 q 565 229 557 213 l 599 167 q 625 139 648 120 q 670 101 696 88 q 721 76 745 76 q 767 76 781 83 q 796 89 814 101 l 822 95 q 798 48 755 20 q 712 -8 653 -8 q 605 -8 572 5 q 538 17 515 36 q 493 55 467 84 q 429 49 403 31 q 377 13 342 3 q 306 -8 255 -8 q 186 -8 141 13 q 97 35 74 65 q 51 95 42 126 q 34 156 34 179 q 34 260 80 307 q 126 353 191 389 q 154 424 127 468 q 100 512 100 557 q 100 588 118 627 q 136 666 187 696 q 238 726 329 726 q 401 726 443 703 q 485 679 499 649 q 513 619 513 594 q 513 545 474 505 q 435 465 362 430 q 392 401 443 344 q 495 286 527 247 q 546 284 555 312 q 565 339 565 371 q 565 407 547 428 q 528 448 502 449 l 502 463 z m 325 467 q 384 500 384 550 q 384 563 378 595 q 372 626 352 655 q 332 683 294 683 q 267 683 247 665 q 226 646 226 616 q 226 585 248 555 q 270 525 325 467 z m 227 348 q 170 308 170 254 q 170 218 190 175 q 211 132 248 102 q 285 72 329 72 q 386 72 435 121 q 400 167 337 235 q 274 303 227 348 z"},"_":{"x_min":0,"x_max":500,"ha":500,"o":"m -6 -125 l -6 -74 l 506 -74 l 506 -125 z"},"v":{"x_min":0,"x_max":740,"ha":740,"o":""},"O":{"x_min":0,"x_max":823,"ha":823,"o":"m 36 362 q 36 435 61 502 q 86 569 135 619 q 184 670 254 698 q 323 726 411 726 q 500 726 570 698 q 639 669 688 618 q 736 567 761 501 q 786 434 786 359 q 786 284 762 218 q 738 152 691 102 q 644 51 573 21 q 502 -8 412 -8 q 315 -8 243 25 q 171 58 126 112 q 80 167 58 232 q 36 297 36 362 z m 207 371 q 207 298 218 227 q 229 156 275 94 q 321 32 413 32 q 542 32 579 136 q 615 241 615 349 q 615 434 601 507 q 586 581 541 634 q 496 686 413 686 q 320 686 275 626 q 229 566 218 499 q 207 432 207 371 z"},"(":{"x_min":0,"x_max":365,"ha":365,"o":"m 396 -105 l 381 -125 q 368 -120 346 -111 q 324 -103 303 -93 q 283 -83 260 -68 q 236 -54 209 -32 q 159 8 124 64 q 89 121 72 183 q 55 246 55 307 q 55 368 72 430 q 89 492 124 549 q 159 605 209 645 q 256 684 298 703 q 339 723 381 738 l 396 718 q 347 689 312 653 q 276 616 254 569 q 232 522 222 457 q 212 393 212 307 q 212 194 230 117 q 248 40 288 -12 q 329 -64 396 -105 z"},"C":{"x_min":0,"x_max":719,"ha":719,"o":"m 689 472 l 672 472 q 664 524 642 565 q 620 605 588 632 q 557 659 517 672 q 478 686 434 686 q 375 686 331 661 q 286 636 262 599 q 233 552 222 495 q 210 438 210 374 q 210 257 251 187 q 292 116 350 89 q 408 61 464 61 q 600 61 699 194 l 699 128 q 667 90 629 61 q 591 31 535 12 q 479 -8 404 -8 q 315 -8 245 22 q 176 52 130 103 q 84 154 61 219 q 37 285 37 354 q 37 414 52 465 q 67 516 93 556 q 119 596 155 630 q 216 686 282 706 q 348 726 424 726 q 499 726 588 701 q 619 694 634 694 q 661 694 675 729 l 689 729 z"},"W":{"x_min":0,"x_max":1083,"ha":1083,"o":"m 1077 719 l 1077 705 q 1036 700 1008 670 q 979 641 957 575 l 758 -7 l 743 -7 l 544 588 l 542 588 l 334 -7 l 318 -7 l 109 620 q 97 657 79 675 q 61 693 43 699 q 25 704 6 705 l 6 719 l 337 719 l 337 705 q 309 704 290 690 q 271 676 271 650 q 271 633 279 609 l 385 289 l 387 289 l 516 656 q 506 676 495 686 q 484 696 469 700 q 453 704 428 705 l 428 719 l 752 719 l 752 705 q 724 705 707 698 q 690 691 690 664 q 690 654 692 644 q 694 634 698 619 q 703 605 703 604 l 808 289 l 810 289 l 910 585 q 922 621 922 643 q 922 682 900 693 q 878 704 846 705 l 846 719 z"},"A":{"x_min":0,"x_max":792,"ha":792,"o":"m 428 726 l 670 104 q 689 56 716 38 q 742 21 781 14 l 781 0 l 440 0 l 440 14 q 510 18 510 58 q 510 64 508 76 q 505 87 502 100 q 498 113 497 116 l 437 269 l 222 269 l 171 122 q 161 96 161 74 q 161 41 181 30 q 200 18 227 14 l 227 0 l 11 0 l 11 14 q 45 18 74 46 q 104 74 131 149 l 335 726 z m 239 317 l 418 317 l 325 559 z"},"f":{"x_min":0,"x_max":563,"ha":563,"o":""},"Q":{"x_min":0,"x_max":823,"ha":823,"o":"m 558 9 l 619 -30 q 631 -39 649 -45 q 666 -52 686 -52 q 719 -52 756 -15 l 771 -26 q 745 -71 702 -109 q 659 -147 589 -147 q 545 -147 506 -131 q 466 -115 405 -78 q 312 -21 263 14 q 216 36 188 53 q 160 70 132 100 q 83 152 60 220 q 36 288 36 358 q 36 431 61 498 q 86 564 134 616 q 183 667 253 697 q 324 726 413 726 q 500 726 571 697 q 642 667 689 617 q 737 566 762 501 q 786 437 786 367 q 786 320 775 272 q 764 223 741 180 q 719 138 688 104 q 653 67 621 48 q 588 29 550 14 q 557 10 558 9 z m 615 371 q 615 411 611 458 q 606 504 587 557 q 568 609 525 648 q 482 686 410 686 q 286 686 247 583 q 207 481 207 349 q 207 240 244 135 q 281 31 409 31 q 460 31 501 56 q 542 81 563 115 q 615 199 615 371 z"},"w":{"x_min":0,"x_max":1083,"ha":1083,"o":""},"-":{"x_min":0,"x_max":344,"ha":344,"o":"m 308 399 l 308 313 l 36 313 l 36 399 z"},"E":{"x_min":0,"x_max":583,"ha":583,"o":"m 532 719 l 538 558 l 524 558 q 514 599 502 625 q 490 651 468 665 q 446 679 408 679 l 263 679 l 263 377 l 379 377 q 431 377 454 400 q 478 423 482 468 l 496 468 l 496 257 l 482 257 q 475 305 446 321 q 418 337 379 337 l 263 337 l 263 130 q 263 40 356 40 l 400 40 q 444 40 472 52 q 500 63 519 92 q 537 121 552 173 l 566 173 l 555 0 l 13 0 l 13 14 q 70 14 86 40 q 103 65 103 107 l 103 611 q 103 650 88 678 q 73 705 18 705 l 13 705 l 13 719 z"},"s":{"x_min":0,"x_max":510,"ha":510,"o":""},">":{"x_min":0,"x_max":549,"ha":549,"o":"m 523 292 l 523 230 l 26 0 l 26 62 l 459 261 l 26 460 l 26 522 z"},"l":{"x_min":0,"x_max":604,"ha":604,"o":""},"8":{"x_min":0,"x_max":573,"ha":573,"o":"m 370 408 q 439 377 491 324 q 544 271 544 192 q 544 148 525 110 q 506 71 471 44 q 449 26 427 16 q 404 5 368 -1 q 332 -8 281 -8 q 249 -8 214 -4 q 180 -1 138 14 q 96 28 66 62 q 36 96 36 151 q 36 195 67 239 q 99 282 192 327 q 127 362 83 406 q 39 450 39 526 q 39 559 56 604 q 72 649 127 688 q 182 726 284 726 q 359 726 408 702 q 456 679 478 644 q 500 609 500 573 q 500 521 465 483 q 429 445 370 408 z m 323 434 q 367 475 367 553 q 367 611 338 646 q 310 680 260 680 q 214 680 188 652 q 161 623 161 586 q 161 559 175 535 q 188 511 224 486 q 259 461 323 434 z m 239 301 q 174 252 174 179 q 174 133 203 85 q 232 38 298 38 q 331 38 356 51 q 382 64 397 87 q 411 109 411 137 q 411 179 375 217 q 338 254 239 301 z"},"\\":{"x_min":0,"x_max":278,"ha":278,"o":"m 1 677 l 62 677 l 281 -15 l 218 -15 z"},"e":{"x_min":0,"x_max":583,"ha":583,"o":""},"b":{"x_min":0,"x_max":719,"ha":719,"o":""},"%":{"x_min":0,"x_max":938,"ha":938,"o":"m 290 536 q 290 696 209 696 q 165 696 146 650 q 128 605 128 538 q 128 376 209 376 q 290 376 290 536 z m 400 539 q 400 503 388 468 q 377 434 353 406 q 328 378 292 362 q 255 346 209 346 q 167 346 132 360 q 97 374 71 401 q 45 427 31 462 q 18 497 18 539 q 18 589 41 632 q 63 675 108 701 q 152 726 209 726 q 255 726 291 710 q 327 694 351 668 q 375 641 387 608 q 400 575 400 539 z m 723 726 l 272 -8 l 207 -8 l 659 726 z m 811 188 q 811 348 730 348 q 686 348 667 303 q 649 257 649 190 q 649 28 730 28 q 811 28 811 188 z m 921 191 q 921 142 899 97 q 878 53 835 25 q 792 -2 730 -2 q 674 -2 631 22 q 587 46 563 91 q 539 135 539 191 q 539 241 562 284 q 584 327 629 353 q 673 378 730 378 q 791 378 833 351 q 876 325 898 281 q 921 238 921 191 z"},"m":{"x_min":0,"x_max":979,"ha":979,"o":""},"#":{"x_min":0,"x_max":500,"ha":500,"o":"m 207 466 l 332 466 l 360 673 l 407 673 l 379 466 l 481 466 l 475 420 l 372 420 l 348 238 l 451 238 l 445 192 l 341 192 l 313 -16 l 266 -16 l 294 192 l 170 192 l 141 -16 l 94 -16 l 123 192 l 20 192 l 26 238 l 129 238 l 154 420 l 54 420 l 60 466 l 160 466 l 189 673 l 236 673 z m 325 420 l 201 420 l 176 238 l 301 238 z"},",":{"x_min":0,"x_max":240,"ha":240,"o":"m 27 -122 l 27 -105 q 62 -87 83 -59 q 104 -31 104 -15 q 104 -7 99 -6 q 57 0 46 26 q 34 51 34 73 q 34 110 59 132 q 84 154 117 154 q 158 154 183 125 q 209 96 209 55 q 209 19 186 -19 q 164 -56 122 -84 q 80 -112 27 -122 z"},"n":{"x_min":0,"x_max":865,"ha":865,"o":""},"h":{"x_min":0,"x_max":865,"ha":865,"o":""},"z":{"x_min":0,"x_max":740,"ha":740,"o":""},"B":{"x_min":0,"x_max":719,"ha":719,"o":"m 448 0 l 15 0 l 15 14 q 72 14 88 40 q 104 65 104 107 l 104 612 q 104 650 90 678 q 75 705 21 705 l 15 705 l 15 719 l 390 719 q 465 719 514 702 q 539 692 566 674 q 594 656 616 624 q 639 591 639 546 q 639 489 606 454 q 573 418 533 404 q 493 389 455 382 l 455 380 q 486 377 524 368 q 562 359 598 340 q 634 320 660 283 q 685 246 685 189 q 685 129 655 87 q 624 44 573 20 q 543 6 516 3 q 488 0 448 0 z m 314 679 l 264 679 l 264 390 l 314 390 q 370 390 421 417 q 473 443 473 538 q 473 608 429 648 q 414 663 389 671 q 364 679 314 679 z m 319 350 l 264 350 l 264 120 q 264 68 290 54 q 316 40 356 40 q 382 40 406 43 q 429 47 454 61 q 479 74 496 106 q 513 137 513 191 q 513 250 488 286 q 462 321 418 335 q 375 350 319 350 z"},"K":{"x_min":0,"x_max":813,"ha":813,"o":"m 425 719 l 728 719 l 728 705 q 670 701 615 667 q 561 632 518 587 l 388 453 l 685 92 q 747 18 800 14 l 800 0 l 466 0 l 466 14 q 483 16 496 22 q 508 27 508 41 q 508 55 488 79 l 265 353 l 262 353 l 262 107 q 262 57 283 35 q 305 14 351 14 l 351 0 l 13 0 l 13 14 q 70 14 86 40 q 102 65 102 107 l 102 612 q 102 661 83 683 q 64 706 13 706 l 13 719 l 351 719 l 351 705 q 295 705 279 679 q 262 654 262 612 l 262 377 l 475 601 q 507 638 507 662 q 507 705 425 705 z"},"R":{"x_min":0,"x_max":792,"ha":792,"o":"m 287 337 l 264 337 l 264 107 q 264 66 276 46 q 289 25 306 20 q 324 14 353 13 l 353 0 l 15 0 l 15 14 q 72 14 88 40 q 104 65 104 107 l 104 611 q 104 663 83 684 q 62 705 15 705 l 15 719 l 388 719 q 462 719 518 696 q 573 673 603 631 q 632 589 632 535 q 632 491 613 457 q 595 423 563 401 q 532 379 493 367 q 543 335 591 255 l 677 109 q 699 71 717 51 q 736 30 750 23 q 764 17 781 14 l 781 0 l 549 0 q 515 61 497 97 q 439 210 413 254 q 387 298 359 317 q 331 337 287 337 z m 303 679 l 264 679 l 264 377 l 297 377 q 381 377 423 417 q 466 458 466 533 q 466 580 448 613 q 429 645 393 662 q 356 679 303 679 z"},"T":{"x_min":0,"x_max":688,"ha":688,"o":"m 93 719 l 595 719 q 630 719 653 728 l 667 728 l 671 559 l 657 559 q 646 633 621 654 q 595 674 558 674 l 424 674 l 424 107 q 424 79 430 59 q 437 39 456 27 q 476 14 513 14 l 513 0 l 175 0 l 175 14 q 231 14 248 40 q 264 65 264 107 l 264 674 l 130 674 q 96 674 74 652 q 53 630 32 559 l 17 559 l 21 728 l 35 728 q 58 719 93 719 z"},"P":{"x_min":0,"x_max":635,"ha":635,"o":"m 257 326 l 257 107 q 257 67 270 47 q 283 26 304 20 q 325 14 352 14 l 352 0 l 8 0 l 8 14 q 42 14 70 29 q 97 43 97 95 l 97 611 q 97 663 75 684 q 54 705 8 705 l 8 719 l 389 719 q 468 719 519 689 q 569 659 590 615 q 611 570 611 523 q 611 467 588 429 q 564 392 534 370 q 499 345 456 332 q 413 320 341 320 q 309 320 257 326 z m 257 675 l 257 365 q 281 360 304 360 q 358 360 391 386 q 425 412 438 451 q 451 489 451 528 q 451 568 437 602 q 422 636 388 658 q 355 679 302 679 q 282 679 257 675 z"},"|":{"x_min":0,"x_max":200,"ha":200,"o":"m 65 673 l 135 673 l 135 -177 l 65 -177 z"},"t":{"x_min":0,"x_max":688,"ha":688,"o":""},"M":{"x_min":0,"x_max":979,"ha":979,"o":"m 930 719 l 930 705 q 902 703 884 698 q 865 693 853 675 q 841 656 844 620 l 884 137 q 888 86 898 62 q 908 38 923 30 q 938 21 970 14 l 970 0 l 640 0 l 640 14 q 682 15 705 36 q 729 57 724 119 l 689 577 l 687 577 l 452 0 l 435 0 l 193 558 l 191 558 l 159 157 q 154 98 167 67 q 181 35 202 26 q 224 16 253 14 l 253 0 l 9 0 l 9 14 q 55 17 79 51 q 103 85 111 165 l 159 620 q 114 693 35 705 l 35 719 l 295 719 l 503 246 l 696 719 z"},"g":{"x_min":0,"x_max":792,"ha":792,"o":""},"j":{"x_min":0,"x_max":417,"ha":417,"o":""},"i":{"x_min":0,"x_max":365,"ha":365,"o":""},"y":{"x_min":0,"x_max":823,"ha":823,"o":""},"@":{"x_min":0,"x_max":832,"ha":832,"o":"m 464 80 q 436 40 403 19 q 371 -1 343 -1 q 284 -1 244 52 q 196 116 196 218 q 196 300 230 378 q 265 456 312 492 q 360 529 405 529 q 438 529 470 507 q 502 484 525 439 l 538 515 l 610 515 l 552 188 q 541 120 541 112 q 541 98 549 89 q 557 80 568 80 q 590 80 629 114 q 669 148 696 213 q 723 278 723 351 q 723 438 685 508 q 647 579 581 618 q 515 658 438 658 q 345 658 271 608 q 196 558 149 460 q 103 361 103 235 q 103 116 145 32 q 187 -51 264 -95 q 342 -138 449 -138 q 545 -138 618 -98 q 691 -58 729 9 l 802 9 q 778 -50 723 -104 q 668 -158 602 -184 q 535 -210 449 -210 q 322 -210 234 -160 q 146 -109 94 -10 q 43 89 43 228 q 43 376 100 496 q 156 616 241 673 q 327 729 441 729 q 537 729 614 682 q 690 635 736 546 q 782 457 782 349 q 782 203 697 92 q 625 -2 541 -2 q 501 -2 484 18 q 467 38 464 80 z m 270 212 q 270 145 297 108 q 323 71 356 71 q 385 71 419 99 q 453 128 478 188 q 502 249 502 316 q 502 384 475 420 q 447 457 409 457 q 379 457 349 431 q 319 406 294 340 q 270 275 270 212 z"},".":{"x_min":0,"x_max":240,"ha":240,"o":"m 120 150 q 153 150 176 126 q 199 103 199 71 q 199 39 176 16 q 153 -8 120 -8 q 87 -8 64 16 q 41 39 41 71 q 41 104 64 127 q 86 150 120 150 z"},"p":{"x_min":0,"x_max":635,"ha":635,"o":""},"X":{"x_min":0,"x_max":833,"ha":833,"o":"m 785 719 l 785 705 q 749 697 728 690 q 707 684 679 663 q 650 642 620 601 l 482 418 l 675 128 q 695 97 717 74 q 739 50 766 34 q 793 18 823 14 l 823 0 l 426 0 l 426 14 q 514 14 514 63 q 514 73 510 84 q 505 94 493 111 l 378 282 l 248 111 q 228 81 228 61 q 228 34 247 26 q 266 17 292 14 l 292 0 l 9 0 l 9 14 q 51 16 85 33 q 120 49 141 68 q 162 87 202 129 l 208 138 l 350 323 l 162 607 q 142 639 119 661 q 97 683 79 692 q 61 701 47 703 q 33 705 22 705 l 22 719 l 395 719 l 395 705 q 332 705 332 662 q 332 652 337 640 q 341 628 355 607 l 454 460 l 550 586 q 550 587 553 590 q 583 631 583 657 q 583 684 565 693 q 547 701 519 705 l 519 719 z"},"*":{"x_min":0,"x_max":458,"ha":458,"o":"m 290 568 l 312 595 q 339 630 369 630 q 393 630 409 609 q 425 587 425 563 q 425 540 409 525 q 393 511 372 511 q 357 511 334 517 q 300 526 291 528 q 282 529 262 527 q 262 516 254 501 q 276 480 309 469 q 340 459 358 446 q 376 433 376 406 q 376 382 354 364 q 331 345 308 345 q 291 345 274 360 q 258 374 256 416 q 254 456 252 467 q 250 479 242 493 q 229 490 228 490 q 229 490 223 492 q 218 493 216 493 q 207 473 205 442 q 202 406 198 389 q 194 371 183 358 q 171 345 150 345 q 126 345 104 363 q 83 381 83 404 q 83 432 102 446 q 121 460 167 477 q 180 482 189 488 q 197 493 203 501 q 194 511 194 527 q 193 527 188 528 q 183 529 179 529 q 169 529 130 521 q 90 512 86 512 q 59 512 46 529 q 32 545 32 564 q 32 587 47 609 q 62 630 86 630 q 118 630 146 592 q 172 558 178 552 q 184 546 198 541 q 208 555 221 558 q 219 569 214 581 q 208 592 188 623 q 169 654 169 673 q 169 690 182 708 q 194 726 229 726 q 264 726 276 708 q 288 690 288 675 q 288 654 265 618 q 246 587 242 579 q 238 571 236 558 q 250 553 258 541 q 275 550 290 568 z"},"Y":{"x_min":0,"x_max":823,"ha":823,"o":"m 810 719 l 810 705 q 757 703 715 675 q 673 646 630 584 l 497 386 l 497 107 q 497 59 516 37 q 536 14 586 14 l 586 0 l 248 0 l 248 14 q 304 14 320 39 q 337 64 337 107 l 337 347 l 123 631 q 88 678 66 692 q 43 705 11 705 l 11 719 l 365 719 l 365 705 q 337 704 321 698 q 305 692 305 672 q 305 654 333 615 l 467 425 l 574 584 q 602 626 602 660 q 602 677 588 691 q 574 705 540 705 l 540 719 z"},"c":{"x_min":0,"x_max":719,"ha":719,"o":""},"!":{"x_min":0,"x_max":240,"ha":240,"o":"m 131 187 l 110 187 q 105 202 87 275 q 68 347 57 394 q 56 401 46 442 q 36 483 31 518 q 26 553 26 581 q 26 644 50 681 q 74 719 119 719 q 147 719 169 702 q 190 686 202 653 q 214 621 214 581 q 214 538 205 486 q 197 434 186 394 q 179 365 157 283 q 136 201 131 187 z m 120 150 q 153 150 176 127 q 199 104 199 71 q 199 38 176 15 q 153 -8 120 -8 q 88 -8 65 15 q 41 39 41 71 q 41 104 65 127 q 89 150 120 150 z"},"/":{"x_min":0,"x_max":312,"ha":312,"o":"m 308 719 l 87 0 l 5 0 l 225 719 z"},"[":{"x_min":0,"x_max":375,"ha":375,"o":"m 116 719 l 375 719 l 375 705 l 345 705 q 260 705 260 623 l 260 3 q 260 -37 276 -62 q 293 -86 345 -86 l 375 -86 l 375 -100 l 116 -100 z"},"6":{"x_min":0,"x_max":573,"ha":573,"o":"m 552 724 l 552 684 q 493 682 445 673 q 397 664 349 635 q 212 555 184 339 l 186 337 q 259 417 352 417 q 387 417 423 404 q 459 392 490 366 q 520 341 539 304 q 558 266 558 219 q 558 159 527 107 q 496 55 437 23 q 378 -8 298 -8 q 209 -8 147 35 q 84 78 54 148 q 23 218 23 296 q 23 384 59 471 q 95 559 167 621 q 210 658 257 680 q 303 702 343 711 q 384 721 418 723 q 453 726 487 726 q 519 726 552 724 z m 183 265 q 181 185 205 111 q 230 38 307 38 q 349 38 373 62 q 396 85 405 119 q 414 153 414 190 q 414 249 389 298 q 363 346 299 346 q 262 346 233 326 q 203 306 183 265 z"},"r":{"x_min":0,"x_max":792,"ha":792,"o":""},"2":{"x_min":0,"x_max":583,"ha":583,"o":"m 544 0 l 14 0 q 65 48 126 113 q 186 179 226 230 q 266 280 296 342 q 326 404 326 470 q 326 506 311 538 q 296 569 267 588 q 238 608 199 608 q 150 608 107 577 q 65 547 45 497 l 27 497 q 39 573 71 620 q 103 667 141 690 q 180 713 212 719 q 244 726 269 726 q 325 726 372 703 q 420 679 448 636 q 476 593 476 536 q 476 483 458 434 q 441 385 407 336 q 374 288 323 235 q 272 182 203 121 q 193 111 191 112 l 191 110 l 427 110 q 479 110 503 131 q 541 163 559 221 l 573 221 z"},"{":{"x_min":0,"x_max":375,"ha":375,"o":"m 330 736 l 330 714 q 282 705 258 680 q 235 656 235 623 q 235 597 246 543 q 251 525 255 502 q 259 479 259 456 q 259 432 248 406 q 237 380 215 357 q 194 333 169 322 q 145 310 99 299 l 99 297 q 141 285 168 271 q 196 257 217 234 q 240 208 250 182 q 260 156 260 138 q 260 121 256 98 q 251 75 248 59 q 236 12 236 -26 q 236 -103 330 -121 l 330 -143 q 258 -145 213 -118 q 167 -91 148 -55 q 129 -18 129 11 q 129 34 134 57 q 138 81 144 104 q 155 148 155 182 q 155 213 136 243 q 118 273 60 282 l 60 312 q 120 322 137 355 q 155 389 155 416 q 155 451 145 491 q 141 504 135 534 q 130 563 130 580 q 130 598 142 633 q 155 667 199 700 q 244 732 330 736 z"},"9":{"x_min":0,"x_max":573,"ha":573,"o":"m 21 -6 l 21 34 q 52 35 84 39 q 117 42 153 52 q 189 62 224 83 q 264 106 297 145 q 331 183 354 241 q 378 298 389 379 l 387 381 q 314 301 221 301 q 174 301 126 324 q 79 347 47 393 q 15 438 15 499 q 15 560 46 612 q 78 664 136 695 q 195 726 275 726 q 364 726 426 683 q 489 640 519 570 q 550 500 550 422 q 550 367 534 307 q 519 248 486 193 q 453 138 406 97 q 362 60 316 38 q 271 17 228 7 q 186 -3 153 -5 q 121 -8 86 -8 q 55 -8 21 -6 z m 390 453 q 391 501 384 551 q 376 601 349 640 q 321 680 266 680 q 206 680 183 634 q 159 588 159 528 q 159 492 169 457 q 179 422 204 397 q 230 372 274 372 q 311 372 341 393 q 371 414 390 453 z"}," ":{"x_min":0,"x_max":339,"ha":339,"o":""},"I":{"x_min":0,"x_max":365,"ha":365,"o":"m 13 706 l 13 719 l 351 719 l 351 705 q 295 705 279 679 q 262 654 262 612 l 262 107 q 262 83 267 64 q 271 45 290 30 q 309 14 347 14 l 351 14 l 351 0 l 13 0 l 13 14 q 69 14 85 40 q 102 65 102 107 l 102 612 q 102 662 80 684 q 59 706 13 706 z"},"H":{"x_min":0,"x_max":865,"ha":865,"o":"m 262 397 l 602 397 l 602 611 q 602 650 587 677 q 573 705 518 705 l 513 705 l 513 719 l 851 719 l 851 705 q 794 705 778 679 q 762 653 762 611 l 762 107 q 762 83 767 64 q 771 45 790 30 q 808 14 846 14 l 851 14 l 851 0 l 513 0 l 513 14 q 570 14 586 40 q 602 65 602 107 l 602 349 l 262 349 l 262 107 q 262 83 267 64 q 271 44 290 29 q 308 14 346 14 l 351 14 l 351 0 l 13 0 l 13 14 q 70 14 86 40 q 102 65 102 107 l 102 611 q 102 650 87 678 q 72 705 18 705 l 13 705 l 13 719 l 351 719 l 351 705 q 295 705 279 679 q 262 654 262 611 z"},"4":{"x_min":0,"x_max":646,"ha":646,"o":"m 465 734 l 465 335 l 630 335 l 630 280 l 465 280 l 465 107 q 465 69 479 42 q 494 14 547 14 l 553 14 l 553 0 l 218 0 l 218 14 q 258 14 278 27 q 298 41 303 60 q 309 80 309 107 l 309 280 l 14 280 l 14 294 l 377 734 z m 309 335 l 309 589 l 307 589 l 100 335 z"},"~":{"x_min":0,"x_max":520,"ha":520,"o":"m 510 346 l 538 346 q 535 269 497 229 q 460 188 406 188 q 380 188 351 197 q 322 205 223 247 q 152 276 120 276 q 87 276 65 256 q 42 236 34 189 l 6 189 q 10 269 46 308 q 82 347 133 347 q 159 347 184 340 q 233 326 320 289 q 367 268 392 261 q 406 257 423 257 q 458 257 482 280 q 505 303 510 346 z"},"D":{"x_min":0,"x_max":844,"ha":844,"o":"m 10 719 l 403 719 q 499 719 575 690 q 652 660 703 608 q 754 556 780 489 q 806 422 806 348 q 806 276 782 213 q 758 151 709 103 q 660 54 587 27 q 514 0 422 0 l 10 0 l 10 14 q 66 14 83 39 q 99 64 99 107 l 99 610 q 99 650 84 677 q 70 705 15 705 l 10 705 z m 259 671 l 259 144 q 259 106 267 83 q 276 61 299 51 q 323 40 370 40 q 413 40 446 46 q 480 51 510 68 q 554 93 582 138 q 611 182 624 235 q 637 289 637 345 q 637 404 622 462 q 606 520 571 569 q 535 619 475 649 q 415 679 328 679 q 297 679 259 671 z"},"^":{"x_min":0,"x_max":581,"ha":581,"o":"m 72 325 l 272 676 l 312 676 l 510 325 l 432 325 l 288 575 l 146 325 z"},"0":{"x_min":0,"x_max":678,"ha":678,"o":"m 29 359 q 29 455 55 525 q 82 596 127 640 q 172 684 227 705 q 281 726 339 726 q 397 726 452 705 q 507 685 552 641 q 597 597 623 526 q 650 455 650 359 q 650 234 605 151 q 561 69 490 31 q 419 -8 339 -8 q 259 -8 188 31 q 118 69 73 151 q 29 234 29 359 z m 193 358 q 193 311 196 266 q 199 221 213 166 q 227 111 258 74 q 289 38 339 38 q 434 38 460 140 q 486 241 486 358 q 486 476 459 578 q 433 680 340 680 q 290 680 258 644 q 227 607 213 555 q 200 502 196 454 q 193 406 193 358 z"},"F":{"x_min":0,"x_max":563,"ha":563,"o":"m 525 719 l 536 592 l 522 592 q 511 624 501 640 q 491 657 468 668 q 444 679 402 679 l 261 679 l 261 385 l 384 385 q 422 385 454 405 q 486 424 489 476 l 504 476 l 504 268 l 489 268 q 486 300 464 323 q 442 345 396 345 l 261 345 l 261 107 q 261 66 280 40 q 299 14 349 14 l 354 14 l 354 0 l 13 0 l 13 14 q 68 14 85 39 q 101 64 101 107 l 101 613 q 101 651 87 678 q 72 705 18 705 l 13 705 l 13 719 z"},"`":{"x_min":0,"x_max":333,"ha":333,"o":"m 221 967 l 334 773 l 308 773 l 24 963 l 24 967 z"},"k":{"x_min":0,"x_max":813,"ha":813,"o":""},"u":{"x_min":0,"x_max":854,"ha":854,"o":""},"]":{"x_min":0,"x_max":375,"ha":375,"o":"m 259 719 l 259 -100 l 0 -100 l 0 -86 l 30 -86 q 85 -86 100 -60 q 115 -34 115 3 l 115 623 q 115 668 92 687 q 68 705 30 705 l 0 705 l 0 719 z"},"U":{"x_min":0,"x_max":854,"ha":854,"o":"m 592 0 l 592 136 l 590 136 q 511 -8 356 -8 q 277 -8 215 29 q 153 65 123 122 q 92 181 92 309 l 92 612 q 92 658 73 681 q 55 705 3 705 l 3 719 l 341 719 l 341 705 q 285 705 269 680 q 252 654 252 612 l 252 291 q 252 220 269 179 q 281 149 303 128 q 326 106 355 95 q 385 84 417 84 q 451 84 481 96 q 512 108 537 130 q 562 153 574 181 q 592 223 592 312 l 592 612 q 592 663 571 685 q 551 706 503 706 l 503 719 l 841 719 l 841 705 q 786 705 769 680 q 752 655 752 612 l 752 107 q 752 59 771 36 q 790 13 841 13 l 841 0 z"},"o":{"x_min":0,"x_max":823,"ha":823,"o":""},"N":{"x_min":0,"x_max":865,"ha":865,"o":"m 274 719 l 713 256 l 713 585 q 713 650 687 674 q 660 697 606 705 l 606 719 l 854 719 l 854 705 q 813 701 793 683 q 773 665 767 641 q 761 617 761 585 l 761 -8 l 743 -8 l 217 546 l 217 141 q 217 90 239 54 q 260 19 319 14 l 319 0 l 62 0 l 62 14 q 170 23 169 120 l 169 596 q 166 598 161 603 q 157 607 146 617 q 136 627 128 635 q 62 698 13 705 l 13 719 z"},"+":{"x_min":0,"x_max":549,"ha":549,"o":"m 247 533 l 302 533 l 302 298 l 539 298 l 539 243 l 302 243 l 302 0 l 247 0 l 247 243 l 10 243 l 10 298 l 247 298 z"},"G":{"x_min":0,"x_max":792,"ha":792,"o":"m 698 520 l 684 520 q 656 595 590 641 q 523 688 435 688 q 367 688 321 659 q 276 629 251 581 q 226 532 216 476 q 206 419 206 356 q 206 200 268 116 q 331 32 436 32 q 512 32 531 55 q 550 77 550 121 l 550 204 q 550 229 546 248 q 542 267 526 283 q 509 299 476 301 l 476 316 l 776 316 l 776 301 q 710 292 710 220 l 710 45 q 595 -8 449 -8 q 391 -8 343 0 q 295 8 258 23 q 221 37 196 54 q 170 71 148 92 q 117 121 93 159 q 69 197 53 248 q 38 298 38 359 q 38 440 67 508 q 96 575 149 625 q 203 674 271 700 q 340 726 416 726 q 459 726 490 720 q 521 714 595 695 q 619 687 646 687 q 675 687 684 725 l 698 725 z"},"q":{"x_min":0,"x_max":823,"ha":823,"o":""},"d":{"x_min":0,"x_max":844,"ha":844,"o":""},"1":{"x_min":0,"x_max":354,"ha":354,"o":"m 261 727 l 261 109 q 261 62 280 38 q 298 14 349 14 l 349 0 l 16 0 l 16 14 q 72 14 89 39 q 105 64 105 107 l 105 454 q 105 484 99 500 q 94 517 74 517 q 54 517 16 493 l 7 506 l 242 727 z"},"5":{"x_min":0,"x_max":521,"ha":521,"o":"m 509 719 l 496 625 l 260 625 l 226 399 q 292 398 346 375 q 400 351 431 307 q 462 263 462 201 q 462 156 445 118 q 427 80 396 52 q 364 24 321 8 q 277 -8 227 -8 q 156 -8 106 16 q 56 40 11 76 l 11 130 q 54 93 96 73 q 137 53 176 53 q 208 53 235 72 q 261 90 278 127 q 294 164 294 215 q 294 282 262 317 q 229 352 193 362 q 157 372 133 372 q 100 372 57 363 l 111 719 z"}}}
